<svg xmlns="http://www.w3.org/2000/svg" viewBox="0 0 1600 900"><rect width="1600" height="900" fill="#0b0d12"/><defs><radialGradient id="a" cx="46%" cy="48%"><stop offset="0" stop-color="#ffb340" stop-opacity=".16"/><stop offset="1" stop-color="#0b0d12" stop-opacity="0"/></radialGradient></defs><rect width="1600" height="900" fill="url(#a)"/><path d="M430 620c-118-55-128-190-51-267-35-113 69-222 179-177 60-100 225-69 238 49 121-3 186 121 126 218 75 100-6 242-128 234-70 87-209 70-253-19-46 19-80 2-111-18z" fill="none" stroke="#eae7e1" stroke-width="12" stroke-linejoin="round"/><g fill="#ffb340"><circle cx="512" cy="365" r="18"/><circle cx="640" cy="292" r="18"/><circle cx="771" cy="382" r="18"/><circle cx="577" cy="523" r="18"/><circle cx="753" cy="548" r="18"/></g><path d="M512 365l128-73 131 90M512 365l65 158 176 25 18-166M640 292l113 256" fill="none" stroke="#ffb340" stroke-width="8"/><g fill="none" stroke="#eae7e1" stroke-width="10" stroke-linecap="round"><path d="M1050 285h260M1050 365h330M1050 445h230M1050 525h300"/><path d="M1085 660h225"/></g><g stroke="#ffb340" stroke-width="12"><path d="M1025 285l18 18 34-42M1025 365l18 18 34-42M1025 445l18 18 34-42M1025 525l18 18 34-42" fill="none" stroke-linecap="round" stroke-linejoin="round"/></g></svg>