<svg xmlns="http://www.w3.org/2000/svg" width="2560" height="1440" viewBox="0 0 2560 1440"><rect width="2560" height="1440" fill="#0b0d12"/><g fill="none" stroke="#eae7e1" stroke-linecap="round" stroke-linejoin="round"><rect x="180" y="250" width="1010" height="860" rx="28" opacity=".19" stroke-width="8"/><path d="M180 690h1010M690 250v860" opacity=".15" stroke-width="7"/><rect x="285" y="760" width="300" height="150" rx="22" opacity=".25" stroke-width="7"/><path d="M285 785v-80M585 785v-80M285 910v65M585 910v65" opacity=".3" stroke-width="8"/><path d="M760 400h300v260H760zM760 760h300v220H760z" opacity=".15" stroke-width="7"/><g opacity=".22" stroke="#ffb340" stroke-width="9"><path d="M1430 360 C1580 300 1730 350 1820 480M1430 1050 C1580 1110 1730 1060 1820 930"/><path d="M1410 360l60-55M1410 1050l60 55"/></g><circle cx="2130" cy="690" r="180" opacity=".2" stroke-width="8"/><path d="M2040 630q90-110 180 0M2060 745q70 85 140 0" opacity=".25" stroke="#ffb340" stroke-width="8"/><path d="M1950 960 Q2130 850 2310 960" opacity=".16" stroke-width="8"/></g><text x="1510" y="720" fill="#ffb340" opacity=".18" font-family="Arial" font-size="68" font-weight="900">OVERLAP</text></svg>